<?xml version="1.0" standalone="no"?>
<!DOCTYPE svg PUBLIC "-//W3C//DTD SVG 20010904//EN"
 "http://www.w3.org/TR/2001/REC-SVG-20010904/DTD/svg10.dtd">
<svg version="1.0" xmlns="http://www.w3.org/2000/svg"
 width="512.000000pt" height="512.000000pt" viewBox="0 0 512.000000 512.000000"
 preserveAspectRatio="xMidYMid meet">
<metadata>
Created by potrace 1.14, written by Peter Selinger 2001-2017
</metadata>
<g transform="translate(0.000000,512.000000) scale(0.100000,-0.100000)"
fill="#000000" stroke="none">
<path d="M2540 5114 c-71 -26 -101 -44 -142 -87 -26 -26 -50 -61 -53 -77 -7
-32 -11 -34 -110 -51 -154 -25 -453 -107 -479 -130 -6 -5 -16 -9 -23 -9 -19 0
-238 -107 -333 -163 -512 -303 -907 -814 -1067 -1382 -28 -100 -28 -101 -48
-200 -35 -180 -43 -277 -40 -490 2 -104 6 -206 9 -225 3 -19 9 -57 13 -85 4
-27 7 -52 8 -55 1 -3 5 -25 9 -50 46 -267 178 -593 342 -844 258 -394 638
-712 1059 -886 44 -18 89 -36 100 -41 32 -13 207 -67 245 -75 19 -4 40 -9 45
-10 59 -14 160 -33 201 -39 50 -6 52 -8 75 -57 29 -62 93 -120 156 -141 61
-19 156 -16 208 9 51 23 122 95 141 143 15 38 15 38 102 51 48 8 89 15 92 15
3 1 23 5 45 9 110 21 340 96 450 147 28 13 52 23 55 24 3 0 50 24 105 54 414
222 756 564 978 981 84 156 177 396 202 520 2 8 8 33 13 55 11 39 13 52 26
125 13 78 16 98 23 160 10 83 9 427 -1 505 -43 346 -150 663 -316 945 -34 58
-155 236 -174 256 -6 6 -27 31 -46 55 -103 128 -287 300 -445 416 -152 111
-369 227 -555 296 -93 35 -291 90 -360 101 -19 4 -67 11 -107 18 l-71 11 -23
49 c-26 56 -84 113 -136 135 -38 15 -148 26 -173 17z"/>
</g>
</svg>
